<svg xmlns="http://www.w3.org/2000/svg" width="100.21" height="100.21" viewBox="0 0 100.21 100.21"><path d="M42.276,0H57.934a4.686,4.686,0,0,1,4.7,4.7V37.579H79.8a3.907,3.907,0,0,1,2.76,6.674L52.786,74.042a3.792,3.792,0,0,1-5.343,0L17.635,44.253a3.907,3.907,0,0,1,2.76-6.674H37.579V4.7A4.686,4.686,0,0,1,42.276,0ZM100.21,73.592V95.513a4.686,4.686,0,0,1-4.7,4.7H4.7a4.686,4.686,0,0,1-4.7-4.7V73.592a4.686,4.686,0,0,1,4.7-4.7H33.41L43,78.485a10.029,10.029,0,0,0,14.209,0l9.59-9.59H95.513A4.686,4.686,0,0,1,100.21,73.592ZM75.94,90.815a3.914,3.914,0,1,0-3.914,3.914A3.926,3.926,0,0,0,75.94,90.815Zm12.526,0a3.914,3.914,0,1,0-3.914,3.914A3.926,3.926,0,0,0,88.467,90.815Z"/></svg>