<svg xmlns="http://www.w3.org/2000/svg" width="43.526" height="35.791" viewBox="0 0 43.526 35.791"><g transform="translate(0.001 -42.421)"><g transform="translate(16.671 42.421)"><g transform="translate(0 0)"><path d="M207.323,44.812a8.157,8.157,0,0,0-5.772-2.391h0a8.113,8.113,0,0,0-5.768,2.389L185.244,55.347a8.171,8.171,0,0,0-2.085,7.979,1.556,1.556,0,1,0,3-.845,5.059,5.059,0,0,1,1.29-4.934l10.538-10.536a5.045,5.045,0,0,1,7.136,7.135L194.581,64.683a5.029,5.029,0,0,1-2.524,1.368,1.556,1.556,0,0,0,.322,3.079,1.539,1.539,0,0,0,.324-.034,8.133,8.133,0,0,0,4.078-2.213l10.538-10.536A8.157,8.157,0,0,0,207.323,44.812Z" transform="translate(-182.855 -42.421)" fill="#81d4fa"/></g></g><g transform="translate(-0.001 51.541)"><g transform="translate(0 0)"><path d="M26.5,148.259a1.556,1.556,0,1,0-3,.845,5.059,5.059,0,0,1-1.29,4.934L11.681,164.576a5.045,5.045,0,0,1-7.136-7.135L15.083,146.9a5.022,5.022,0,0,1,2.521-1.368,1.556,1.556,0,1,0-.61-3.052l-.031.006a8.146,8.146,0,0,0-4.08,2.213L2.345,155.24a8.158,8.158,0,0,0,11.537,11.538l10.538-10.539A8.17,8.17,0,0,0,26.5,148.259Z" transform="translate(0.001 -142.452)" fill="#81d4fa"/></g></g></g></svg>