<svg xmlns="http://www.w3.org/2000/svg" width="104.163" height="104.163" viewBox="0 0 104.163 104.163"><path d="M93.747,0H10.416A10.447,10.447,0,0,0,0,10.416v83.33a10.447,10.447,0,0,0,10.416,10.416h83.33a10.447,10.447,0,0,0,10.416-10.416V10.416A10.447,10.447,0,0,0,93.747,0Zm-62.5,88.539H15.624V41.665H31.249ZM23.437,32.811a9.375,9.375,0,1,1,9.375-9.375A9.336,9.336,0,0,1,23.437,32.811Zm65.1,55.727H72.914v-27.6a7.812,7.812,0,1,0-15.624,0v27.6H41.665V41.665H57.29v6.25a16.824,16.824,0,0,1,13.02-7.291A18.453,18.453,0,0,1,88.539,58.852Z"/></svg>