<svg xmlns="http://www.w3.org/2000/svg" width="44.873" height="42.761" viewBox="0 0 44.873 42.761"><path d="M121.381,192.112a.851.851,0,0,1-.553-.2L115.3,187.2a.855.855,0,0,1,0-1.3l5.528-4.707a.854.854,0,1,1,1.107,1.3l-4.764,4.057,4.764,4.057a.854.854,0,0,1-.554,1.505Zm0,0" transform="translate(-103.132 -160.751)" fill="#81d4fa"/><path d="M250.562,192.112a.855.855,0,0,1-.554-1.505l4.764-4.057-4.764-4.057a.854.854,0,0,1,1.107-1.3l5.528,4.707a.855.855,0,0,1,0,1.3l-5.528,4.707a.851.851,0,0,1-.553.2Zm0,0" transform="translate(-223.938 -160.751)" fill="#81d4fa"/><path d="M189.81,171.091a.869.869,0,0,1-.177-.019.855.855,0,0,1-.66-1.012l3.445-16.357a.854.854,0,1,1,1.672.352l-3.445,16.357A.854.854,0,0,1,189.81,171.091Zm0,0" transform="translate(-169.295 -136.307)" fill="#81d4fa"/><path d="M39.9,42.761H4.974A5.191,5.191,0,0,1,0,37.389V5.372A5.191,5.191,0,0,1,4.974,0H39.9a5.191,5.191,0,0,1,4.974,5.372V37.389A5.191,5.191,0,0,1,39.9,42.761ZM4.974,1.6A3.645,3.645,0,0,0,1.482,5.372V37.389a3.645,3.645,0,0,0,3.492,3.772H39.9a3.645,3.645,0,0,0,3.492-3.772V5.372A3.645,3.645,0,0,0,39.9,1.6Zm0,0" transform="translate(0)" fill="#81d4fa"/><path d="M44.132,99.8H.741a.863.863,0,0,1,0-1.709H44.132a.863.863,0,0,1,0,1.709Zm0,0" transform="translate(0 -86.907)" fill="#81d4fa"/><path d="M100.153,39.7a2.7,2.7,0,1,1,2.7-2.7A2.707,2.707,0,0,1,100.153,39.7Zm0-3.7a.995.995,0,1,0,.995.995A1,1,0,0,0,100.153,36Zm0,0" transform="translate(-87.321 -30.105)" fill="#81d4fa"/><path d="M32.09,39.481a2.7,2.7,0,1,1,2.7-2.7A2.706,2.706,0,0,1,32.09,39.481Zm0-3.7a.995.995,0,1,0,.995.995A1,1,0,0,0,32.09,35.783Zm0,0" transform="translate(-25.8 -29.916)" fill="#81d4fa"/><path d="M168.219,39.91a2.7,2.7,0,1,1,2.7-2.7A2.706,2.706,0,0,1,168.219,39.91Zm0-3.7a.995.995,0,1,0,.995.995A1,1,0,0,0,168.219,36.212Zm0,0" transform="translate(-148.312 -30.293)" fill="#81d4fa"/></svg>